<?xml version="1.0" standalone="no"?>
<!DOCTYPE svg PUBLIC "-//W3C//DTD SVG 20010904//EN"
 "http://www.w3.org/TR/2001/REC-SVG-20010904/DTD/svg10.dtd">
<svg version="1.0" xmlns="http://www.w3.org/2000/svg"
     width="580.000000pt" height="580.000000pt" viewBox="0 0 580.000000 580.000000"
     preserveAspectRatio="xMidYMid meet">
    <metadata>
        Created by potrace 1.13, written by Peter Selinger 2001-2015
    </metadata>
    <g transform="translate(0.000000,580.000000) scale(0.100000,-0.100000)"
       fill="#000000" stroke="none">
        <path d="M2840 4463 c-80 -8 -183 -34 -228 -57 -38 -19 -350 -195 -672 -378
-52 -30 -122 -83 -145 -110 -87 -101 -135 -189 -165 -296 -19 -66 -20 -104
-20 -507 0 -403 1 -441 20 -507 30 -107 78 -195 165 -296 23 -27 93 -80 145
-110 321 -183 634 -359 672 -378 105 -53 286 -70 426 -40 77 16 134 40 243
103 37 21 190 107 340 192 249 141 281 161 349 230 88 89 150 197 180 318 18
71 20 113 20 488 0 375 -2 417 -20 488 -30 121 -92 229 -180 318 -68 69 -100
89 -349 230 -150 85 -303 171 -340 192 -36 21 -89 49 -118 63 -77 37 -240 66
-323 57z m155 -177 c87 -19 80 -15 436 -218 101 -58 204 -117 229 -130 176
-98 220 -137 280 -249 58 -110 60 -124 60 -574 0 -451 -2 -464 -61 -576 l-34
-63 -7 90 c-17 226 -151 482 -415 799 -181 217 -503 528 -790 763 -51 42 -90
79 -87 84 11 17 109 60 168 73 79 17 146 18 221 1z m-380 -207 c287 -232 650
-584 828 -801 289 -352 408 -638 352 -843 -19 -71 -34 -88 -130 -140 -27 -16
-85 -48 -128 -72 -44 -25 -81 -42 -84 -39 -3 3 0 34 8 68 16 76 16 177 0 278
-20 123 -33 174 -53 202 -10 15 -25 46 -34 70 -24 68 -145 302 -224 433 -147
244 -412 605 -617 841 -40 46 -50 63 -41 72 7 7 15 12 18 12 3 0 50 -36 105
-81z m-237 -156 c236 -322 496 -757 607 -1018 178 -420 183 -723 15 -865 -29
-25 -68 -60 -86 -77 -37 -37 -43 -38 -139 -18 -52 11 -108 37 -225 101 -207
115 -280 158 -280 165 0 3 22 20 50 38 68 44 158 137 198 204 177 296 121 759
-160 1322 -39 77 -82 160 -96 184 -25 42 -25 44 -7 57 10 8 24 14 31 14 7 0
48 -48 92 -107z m-150 -85 c149 -274 256 -572 291 -805 15 -101 13 -265 -4
-348 -25 -115 -75 -207 -158 -289 -39 -39 -98 -85 -129 -103 l-56 -31 -104 58
c-128 72 -194 139 -246 247 l-37 78 0 471 0 471 42 84 c28 56 59 101 95 135
54 52 199 143 229 144 10 0 38 -41 77 -112z"/>
    </g>
</svg>
